<svg width="1600" height="1000" viewBox="0 0 1600 1000" fill="none" xmlns="http://www.w3.org/2000/svg">
  <defs>
    <linearGradient id="bg" x1="140" y1="112" x2="1450" y2="920" gradientUnits="userSpaceOnUse">
      <stop stop-color="#111721"/>
      <stop offset="1" stop-color="#171F2C"/>
    </linearGradient>
    <linearGradient id="window" x1="980" y1="190" x2="1358" y2="470" gradientUnits="userSpaceOnUse">
      <stop stop-color="#E2EBF3"/>
      <stop offset="1" stop-color="#899FB4"/>
    </linearGradient>
    <linearGradient id="floor" x1="800" y1="538" x2="800" y2="870" gradientUnits="userSpaceOnUse">
      <stop stop-color="#6A4E3E"/>
      <stop offset="1" stop-color="#34261E"/>
    </linearGradient>
    <filter id="shadow" x="0" y="0" width="1600" height="1000" filterUnits="userSpaceOnUse" color-interpolation-filters="sRGB">
      <feDropShadow dx="0" dy="26" stdDeviation="30" flood-color="#000000" flood-opacity="0.34"/>
    </filter>
  </defs>
  <rect width="1600" height="1000" rx="56" fill="#090E15"/>
  <g filter="url(#shadow)">
    <rect x="82" y="82" width="1436" height="836" rx="42" fill="url(#bg)"/>
    <path d="M150 168H1450V560H150V168Z" fill="#1C232E"/>
    <path d="M150 560H1450V838H150V560Z" fill="url(#floor)"/>
    <path d="M954 190H1386V470H954V190Z" fill="url(#window)"/>
    <path d="M954 396C1038 348 1116 332 1198 344C1268 354 1332 386 1386 356V470H954V396Z" fill="#C8D8E6" fill-opacity="0.7"/>
    <path d="M1024 212V470M1148 212V470M1272 212V470" stroke="#D8E4EE" stroke-width="16" stroke-opacity="0.9"/>
    <rect x="186" y="248" width="520" height="232" rx="28" fill="#2A3342"/>
    <rect x="214" y="284" width="172" height="160" rx="20" fill="#3B4657"/>
    <rect x="416" y="304" width="254" height="120" rx="18" fill="#9C7A58"/>
    <rect x="258" y="598" width="448" height="118" rx="56" fill="#46372F"/>
    <rect x="250" y="552" width="464" height="104" rx="24" fill="#6C584B"/>
    <rect x="300" y="512" width="144" height="42" rx="21" fill="#7A6656"/>
    <rect x="520" y="512" width="138" height="42" rx="21" fill="#7A6656"/>
    <ellipse cx="502" cy="764" rx="270" ry="74" fill="#201711" fill-opacity="0.42"/>
    <rect x="434" y="694" width="198" height="28" rx="14" fill="#241914"/>
    <rect x="1088" y="590" width="240" height="160" rx="22" fill="#6D5644"/>
    <rect x="1122" y="546" width="170" height="60" rx="30" fill="#B4936A"/>
    <rect x="926" y="612" width="122" height="196" rx="26" fill="#232A36"/>
    <rect x="214" y="206" width="498" height="18" rx="9" fill="#2E3746"/>
    <rect x="214" y="224" width="498" height="10" rx="5" fill="#414B5B"/>
    <circle cx="838" cy="282" r="32" fill="#D1B08A"/>
    <circle cx="838" cy="282" r="12" fill="#EEDBC1"/>
    <path d="M150 560H1450" stroke="#F4E8D8" stroke-opacity="0.14" stroke-width="8"/>
  </g>
</svg>
