<svg width="1600" height="1000" viewBox="0 0 1600 1000" fill="none" xmlns="http://www.w3.org/2000/svg">
  <defs>
    <linearGradient id="bg" x1="154" y1="104" x2="1460" y2="910" gradientUnits="userSpaceOnUse">
      <stop stop-color="#131C28"/>
      <stop offset="1" stop-color="#1B2635"/>
    </linearGradient>
    <linearGradient id="wall" x1="800" y1="150" x2="800" y2="530" gradientUnits="userSpaceOnUse">
      <stop stop-color="#E8DED0"/>
      <stop offset="1" stop-color="#D2C1AA"/>
    </linearGradient>
    <linearGradient id="floor" x1="800" y1="536" x2="800" y2="838" gradientUnits="userSpaceOnUse">
      <stop stop-color="#7A624D"/>
      <stop offset="1" stop-color="#4E3C31"/>
    </linearGradient>
  </defs>
  <rect width="1600" height="1000" rx="56" fill="#091018"/>
  <rect x="80" y="80" width="1440" height="840" rx="42" fill="url(#bg)"/>
  <path d="M170 170H1430V536H170V170Z" fill="url(#wall)"/>
  <path d="M170 536H1430V838H170V536Z" fill="url(#floor)"/>
  <rect x="986" y="188" width="354" height="262" rx="24" fill="#D8E0E6"/>
  <path d="M986 390C1058 350 1146 338 1240 354C1284 362 1318 372 1340 382V450H986V390Z" fill="#AABBC7"/>
  <path d="M1104 188V450M1222 188V450" stroke="#F1F5F8" stroke-width="14"/>
  <rect x="226" y="218" width="522" height="222" rx="28" fill="#F3EDE4"/>
  <rect x="250" y="250" width="210" height="160" rx="20" fill="#B9926D"/>
  <rect x="492" y="278" width="212" height="104" rx="18" fill="#FFFFFF"/>
  <rect x="250" y="590" width="354" height="106" rx="53" fill="#D8CAB9"/>
  <rect x="242" y="548" width="368" height="92" rx="22" fill="#C2AB8D"/>
  <rect x="286" y="518" width="108" height="34" rx="17" fill="#EEE6DB"/>
  <rect x="456" y="518" width="108" height="34" rx="17" fill="#EEE6DB"/>
  <ellipse cx="448" cy="760" rx="236" ry="68" fill="#211A15" fill-opacity="0.22"/>
  <rect x="418" y="680" width="176" height="26" rx="13" fill="#554336"/>
  <rect x="1130" y="586" width="188" height="138" rx="18" fill="#CAB08D"/>
  <rect x="1160" y="548" width="126" height="48" rx="24" fill="#EFE6DA"/>
  <rect x="966" y="612" width="126" height="190" rx="24" fill="#293444"/>
  <rect x="780" y="256" width="92" height="250" rx="20" fill="#202B39"/>
  <circle cx="828" cy="238" r="24" fill="#E6D7C6"/>
  <circle cx="828" cy="238" r="9" fill="#C89B6E"/>
  <path d="M170 536H1430" stroke="#F6EFE7" stroke-opacity="0.24" stroke-width="8"/>
</svg>
